<?xml version="1.0" encoding="UTF-8"?>
<svg version="1.1" xmlns="http://www.w3.org/2000/svg" width="4000" height="4000">
<path d="M0 0 C0.88020184 -0.00282738 1.76040367 -0.00565475 2.66727829 -0.00856781 C7.34410632 -0.02342085 12.02090472 -0.03273231 16.69775391 -0.03710938 C20.45892275 -0.04144863 24.21985631 -0.0551824 27.98095703 -0.078125 C61.84337065 -0.28017344 95.4673638 1.28385483 129.0859375 5.515625 C130.35439011 5.67094696 130.35439011 5.67094696 131.64846802 5.82940674 C149.06563956 7.96747459 166.37321852 10.65445825 183.63372803 13.81176758 C185.0469111 14.07024177 186.46035972 14.32726877 187.87408447 14.58276367 C250.80280265 25.95691313 312.93794817 44.08731998 371.7734375 69.203125 C372.78035645 69.63222168 373.78727539 70.06131836 374.82470703 70.50341797 C381.49525096 73.3563583 388.13980997 76.26551281 394.7734375 79.203125 C396.09794922 79.78707031 396.09794922 79.78707031 397.44921875 80.3828125 C407.91499891 85.00326063 418.27138146 89.77789236 428.44677734 95.00878906 C430.13254494 95.87413797 431.8206825 96.73487509 433.51025391 97.59277344 C447.37814097 104.63728618 460.93529135 112.06919545 474.3203125 119.9921875 C478.86745229 122.68370459 483.45971407 125.27592818 488.0859375 127.828125 C526.31797594 149.14899354 562.37734462 176.0207107 596.08642578 203.81591797 C597.60986909 205.0686249 599.14230385 206.3103776 600.67578125 207.55078125 C611.78410079 216.53856989 622.52037697 225.95397007 633.0078125 235.65625 C635.59166616 238.03573105 638.20794882 240.37264447 640.8359375 242.703125 C645.46624249 246.85033236 649.8258848 251.23577793 654.19140625 255.65625 C656.30388131 257.73996216 658.437708 259.67670736 660.7109375 261.578125 C664.83469727 265.09717865 668.42239659 269.07613971 672.05908203 273.08227539 C675.63129412 277.00519948 679.30844148 280.79051153 683.0859375 284.515625 C686.88526431 288.27140651 690.54406189 292.08718375 694.0078125 296.15625 C696.1677717 298.66027349 698.40831743 301.08310198 700.6484375 303.515625 C704.71883806 307.97835332 708.57520659 312.565705 712.3671875 317.265625 C715.07124139 320.56667781 717.8550317 323.79034103 720.6484375 327.015625 C726.58769555 333.90643556 732.22924535 340.9922634 737.7734375 348.203125 C738.37704102 348.98606934 738.98064453 349.76901367 739.60253906 350.57568359 C744.36255595 356.7575391 749.08455897 362.9671425 753.7734375 369.203125 C754.32757324 369.93982422 754.88170898 370.67652344 755.45263672 371.43554688 C781.84440157 406.73422396 804.5307261 445.20002362 825.12255859 484.09375 C826.66659047 487.0018822 828.22755461 489.90021411 829.79296875 492.796875 C838.60097533 509.22567102 846.23687934 526.16424991 853.7734375 543.203125 C854.18045898 544.12013184 854.58748047 545.03713867 855.00683594 545.98193359 C865.51667161 569.80916198 874.56098747 594.49941168 882.7734375 619.203125 C883.12857422 620.26595703 883.48371094 621.32878906 883.84960938 622.42382812 C889.75880658 640.19238472 895.00907032 658.09506833 899.7734375 676.203125 C900.07491699 677.34716797 900.37639648 678.49121094 900.68701172 679.66992188 C904.36326211 693.73313397 907.65630913 707.86874802 910.7109375 722.078125 C910.86668243 722.79480347 911.02242737 723.51148193 911.18289185 724.24987793 C911.624979 726.29278191 912.05813451 728.33736503 912.48828125 730.3828125 C912.73698975 731.55569824 912.98569824 732.72858398 913.24194336 733.93701172 C913.7734375 737.203125 913.7734375 737.203125 913.7734375 743.203125 C772.5334375 743.203125 631.2934375 743.203125 485.7734375 743.203125 C479.8334375 728.848125 479.8334375 728.848125 473.7734375 714.203125 C471.48253877 708.8447517 469.18002037 703.5079582 466.7734375 698.203125 C466.30188232 697.1514917 466.30188232 697.1514917 465.82080078 696.07861328 C452.76215785 667.09510334 435.8983292 639.56729796 416.7734375 614.203125 C416.31598145 613.59404297 415.85852539 612.98496094 415.38720703 612.35742188 C404.5648156 597.99120436 393.30393436 583.26504798 380.32421875 570.75 C378.66681671 569.09677278 377.163579 567.36237922 375.6484375 565.578125 C368.65813635 557.48326159 360.92990489 549.8417859 352.7734375 542.92578125 C350.33954619 540.82940221 348.00209325 538.6391512 345.6484375 536.453125 C339.29397186 530.67238676 332.59911226 525.41316949 325.7734375 520.203125 C325.01853027 519.62369141 324.26362305 519.04425781 323.48583984 518.44726562 C292.93451601 495.04205366 260.02595858 474.7643698 224.80908203 459.11035156 C223.32553415 458.44917815 221.84515269 457.7808863 220.36669922 457.10839844 C169.40383971 433.95120833 113.60237919 420.19634691 57.7734375 416.203125 C56.9685791 416.14527832 56.1637207 416.08743164 55.33447266 416.02783203 C-24.26822947 410.67652331 -104.30681254 424.73464686 -177.2265625 457.203125 C-178.31356445 457.68152832 -179.40056641 458.15993164 -180.52050781 458.65283203 C-196.30678866 465.62312521 -211.36243649 473.44596549 -226.2265625 482.203125 C-227.56856935 482.97992915 -228.91097365 483.75604737 -230.25390625 484.53125 C-245.52271815 493.42923966 -260.27198324 503.36500228 -274.2265625 514.203125 C-275.26683594 514.98945312 -276.30710937 515.77578125 -277.37890625 516.5859375 C-288.54820386 525.03671113 -299.13580376 534.07472475 -309.40234375 543.59765625 C-311.94012344 545.93887209 -314.51294611 548.23105491 -317.1015625 550.515625 C-325.72003972 558.25693895 -334.11876321 566.45506549 -341.60546875 575.3046875 C-343.507499 577.53212533 -345.4926397 579.67335471 -347.4765625 581.828125 C-352.56130852 587.46443669 -357.19177625 593.41427125 -361.83251953 599.41503906 C-363.16605739 601.1255174 -364.51782604 602.81920501 -365.87890625 604.5078125 C-382.78998151 625.55159801 -396.71529644 648.34896369 -409.90429688 671.84912109 C-410.7059848 673.2763506 -411.51103306 674.7017091 -412.32226562 676.12353516 C-457.21576578 754.91028916 -474.74673233 851.79606176 -451.68017578 1037.11962891 C-442.61082408 1070.18508499 -429.47972244 1101.55929396 -414.2265625 1132.203125 C-413.81083984 1133.04391602 -413.39511719 1133.88470703 -412.96679688 1134.75097656 C-395.70454032 1169.43087824 -372.37785649 1202.50839293 -346.1875 1231.0625 C-344.41432652 1232.99815551 -342.6895833 1234.96434964 -340.9765625 1236.953125 C-330.12368614 1249.40369103 -330.12368614 1249.40369103 -318.05078125 1260.6328125 C-316.00190614 1262.39651228 -314.12142712 1264.27527434 -312.2265625 1266.203125 C-308.39110404 1270.08309555 -304.37928016 1273.66770321 -300.2265625 1277.203125 C-299.2571875 1278.0384375 -298.2878125 1278.87375 -297.2890625 1279.734375 C-289.80304025 1286.15865573 -282.1361673 1292.30695122 -274.2265625 1298.203125 C-273.57623047 1298.69006836 -272.92589844 1299.17701172 -272.25585938 1299.67871094 C-253.50229796 1313.66008198 -233.7086328 1325.92603182 -213.2265625 1337.203125 C-212.43185547 1337.64108398 -211.63714844 1338.07904297 -210.81835938 1338.53027344 C-131.01974779 1382.19803065 -38.78901762 1401.33258674 51.7734375 1396.203125 C53.27632324 1396.12022217 53.27632324 1396.12022217 54.80957031 1396.03564453 C128.6630906 1391.659966 204.30189062 1369.38881916 267.7734375 1331.203125 C268.73604492 1330.62691406 269.69865234 1330.05070312 270.69042969 1329.45703125 C284.41161014 1321.21354175 297.9256562 1312.76906009 310.7734375 1303.203125 C311.33740234 1302.78401855 311.90136719 1302.36491211 312.48242188 1301.93310547 C319.01224839 1297.05119079 325.37148416 1291.95342872 331.7109375 1286.828125 C332.30656494 1286.34738525 332.90219238 1285.86664551 333.51586914 1285.37133789 C335.61402331 1283.66303502 337.6947689 1281.93510008 339.7734375 1280.203125 C340.7735083 1279.37659424 341.7735791 1278.55006348 342.80395508 1277.69848633 C351.80202768 1270.18011028 360.17040091 1262.11594225 368.43432617 1253.80297852 C370.59396304 1251.63255939 372.76417653 1249.47312683 374.93554688 1247.31445312 C382.34381974 1239.91332115 389.31804197 1232.45824962 395.7734375 1224.203125 C396.74366083 1223.04304546 397.72051984 1221.88844798 398.70703125 1220.7421875 C422.46088 1193.09730269 441.9951886 1162.50125414 458.7734375 1130.203125 C459.26972656 1129.25969238 459.76601562 1128.31625977 460.27734375 1127.34423828 C467.55506145 1113.48038436 473.64727484 1099.26491161 479.37060547 1084.69482422 C481.45365199 1079.51004674 483.62436999 1074.36088703 485.7734375 1069.203125 C627.3434375 1069.203125 768.9134375 1069.203125 914.7734375 1069.203125 C905.40070392 1114.8952012 905.40070392 1114.8952012 901.4609375 1129.890625 C901.23421356 1130.76493164 901.00748962 1131.63923828 900.77389526 1132.54003906 C895.99788815 1150.93511133 890.64475094 1169.12907744 884.7734375 1187.203125 C884.53902954 1187.92590637 884.30462158 1188.64868774 884.06311035 1189.39337158 C870.65882369 1230.61046524 853.86279778 1270.30270179 834.7734375 1309.203125 C834.38027344 1310.0060498 833.98710937 1310.80897461 833.58203125 1311.63623047 C831.3522129 1316.1791768 829.07938017 1320.69838677 826.7734375 1325.203125 C826.24000732 1326.25113281 826.24000732 1326.25113281 825.69580078 1327.3203125 C819.10222594 1340.23001678 811.93864946 1352.77500306 804.53515625 1365.23583984 C803.41868868 1367.11632027 802.30621015 1368.99917954 801.19921875 1370.88525391 C793.1635648 1384.56807212 784.49953422 1397.80908445 775.7109375 1411.015625 C775.16812134 1411.83298126 774.62530518 1412.65033752 774.06604004 1413.49246216 C764.12256368 1428.44392152 753.88738701 1443.21592821 742.7734375 1457.328125 C742.20004639 1458.0605542 741.62665527 1458.7929834 741.03588867 1459.54760742 C731.97286403 1471.08654262 722.68431837 1482.43525285 713.15039062 1493.58789062 C711.73222404 1495.25147043 710.32268433 1496.92208376 708.9140625 1498.59375 C703.04404429 1505.53388463 697.0061484 1512.27703845 690.7565918 1518.87841797 C687.97644766 1521.81853803 685.25679151 1524.78636545 682.62402344 1527.85961914 C678.55237871 1532.52352074 674.22184397 1536.89873284 669.83984375 1541.26953125 C669.00307602 1542.10725571 668.16630829 1542.94498016 667.30418396 1543.80809021 C665.54475646 1545.56819435 663.78408097 1547.32705177 662.0222168 1549.0847168 C659.34374339 1551.75783472 656.67064877 1554.43624751 653.99804688 1557.11523438 C652.27896635 1558.83365403 650.55957561 1560.55176342 648.83984375 1562.26953125 C648.05001602 1563.06138321 647.26018829 1563.85323517 646.44642639 1564.66908264 C641.71361603 1569.3822014 636.84021635 1573.85302687 631.7734375 1578.203125 C630.16575377 1579.65758017 628.56104035 1581.11533395 626.9609375 1582.578125 C622.66735118 1586.45346243 618.24255748 1590.1253381 613.74609375 1593.76171875 C610.43591484 1596.48032823 607.19868774 1599.2741939 603.9609375 1602.078125 C597.68796692 1607.48924546 591.24719036 1612.64303198 584.6953125 1617.7109375 C582.63079891 1619.31387285 580.57661274 1620.92944558 578.5234375 1622.546875 C547.31863728 1647.07985535 514.17376602 1669.40125522 479.7734375 1689.203125 C478.53013672 1689.92338867 478.53013672 1689.92338867 477.26171875 1690.65820312 C461.0395793 1700.03924832 444.50721216 1708.77775364 427.7734375 1717.203125 C427.1269928 1717.52923767 426.4805481 1717.85535034 425.81451416 1718.19134521 C404.52164212 1728.91982136 382.88018446 1738.53413332 360.75213623 1747.40942383 C358.92509985 1748.14228977 357.09944866 1748.87860648 355.27392578 1749.61523438 C279.13364042 1780.18697538 199.11477967 1798.70493861 117.7109375 1808.015625 C116.44138214 1808.16467789 116.44138214 1808.16467789 115.1461792 1808.31674194 C85.27181111 1811.78086553 55.21100949 1812.59126701 25.16274643 1812.52098083 C22.72231644 1812.51551041 20.28189623 1812.51316435 17.84146118 1812.5111084 C-7.15195633 1812.47835898 -31.9774163 1811.83859586 -56.86968994 1809.42773438 C-59.24609042 1809.20126399 -61.62337092 1808.98913362 -64.00146484 1808.78125 C-115.48681443 1804.25604955 -166.308777 1794.46689359 -216.2265625 1781.203125 C-218.05888428 1780.71658447 -218.05888428 1780.71658447 -219.92822266 1780.22021484 C-270.28447056 1766.67544333 -319.22724939 1747.77321352 -366.35791016 1725.55371094 C-369.03247261 1724.29450417 -371.71235882 1723.04758193 -374.39453125 1721.8046875 C-385.53146377 1716.62257711 -396.42897622 1711.05786786 -407.2265625 1705.203125 C-408.73500732 1704.38714844 -408.73500732 1704.38714844 -410.27392578 1703.5546875 C-440.94415218 1686.90368237 -470.80717082 1668.48228891 -499.2265625 1648.203125 C-499.88462891 1647.73519531 -500.54269531 1647.26726562 -501.22070312 1646.78515625 C-512.40311461 1638.82207578 -523.37933303 1630.61613368 -534.2265625 1622.203125 C-534.85046875 1621.72101563 -535.474375 1621.23890625 -536.1171875 1620.7421875 C-543.61268907 1614.944385 -550.93318984 1608.98058226 -558.13671875 1602.82421875 C-561.00233944 1600.38009166 -563.92061772 1598.00616766 -566.8515625 1595.640625 C-571.61894253 1591.76149045 -576.16859237 1587.68366293 -580.69140625 1583.5234375 C-582.75982008 1581.63031297 -584.85062126 1579.78060796 -586.9765625 1577.953125 C-598.81123234 1567.63531326 -609.99179716 1556.60114261 -621.07275391 1545.48730469 C-623.24917519 1543.30545592 -625.43098489 1541.12909587 -627.61328125 1538.953125 C-629.02636287 1537.53938348 -630.43913473 1536.12533226 -631.8515625 1534.7109375 C-632.4902124 1534.07431183 -633.1288623 1533.43768616 -633.78686523 1532.7817688 C-637.56077455 1528.98841339 -641.15153621 1525.08364004 -644.64102173 1521.02677917 C-647.21142632 1518.07035626 -649.91370162 1515.23981516 -652.6015625 1512.390625 C-657.34574443 1507.32521888 -661.84138905 1502.132713 -666.18359375 1496.71484375 C-668.13649286 1494.31386071 -670.15531633 1492.00224894 -672.2265625 1489.703125 C-715.92387621 1440.95063186 -752.24775986 1383.22156088 -782.2265625 1325.203125 C-782.57867798 1324.52187561 -782.93079346 1323.84062622 -783.2935791 1323.13873291 C-814.73102883 1262.19831132 -838.87332311 1198.55185827 -856.2265625 1132.203125 C-856.42187561 1131.46098755 -856.61718872 1130.7188501 -856.81842041 1129.95422363 C-868.31914408 1086.20268201 -876.03403651 1041.2713562 -880.4765625 996.265625 C-880.5537854 995.49298309 -880.6310083 994.72034119 -880.71057129 993.92428589 C-881.29087054 988.02270578 -881.77975996 982.1162365 -882.2265625 976.203125 C-882.3140979 975.04753082 -882.4016333 973.89193665 -882.49182129 972.70132446 C-884.00269812 952.11207044 -884.54777346 931.60706659 -884.48730469 910.96508789 C-884.47592124 907.05233364 -884.48270431 903.13985203 -884.49418163 899.22710705 C-884.56392505 871.15000486 -883.34026842 843.20105772 -880.4140625 815.265625 C-880.33041443 814.44924561 -880.24676636 813.63286621 -880.1605835 812.79174805 C-877.23332251 784.3531661 -872.86121868 756.2265869 -867.2265625 728.203125 C-866.99356445 727.0382959 -866.76056641 725.8734668 -866.52050781 724.67333984 C-860.06505247 692.71929114 -851.82127739 661.33008362 -841.89324951 630.2878418 C-841.25089544 628.2792136 -840.6118493 626.26955663 -839.97314453 624.25976562 C-820.82794247 564.34708978 -794.65566663 506.6470203 -763.2265625 452.203125 C-762.69949707 451.2867627 -762.17243164 450.37040039 -761.62939453 449.42626953 C-753.31977013 435.01933994 -744.41931285 421.0600659 -735.2265625 407.203125 C-734.13767513 405.55100905 -733.04911757 403.89867566 -731.9609375 402.24609375 C-725.91199341 393.08569059 -719.68839813 384.07661445 -713.2265625 375.203125 C-712.7845752 374.5937207 -712.34258789 373.98431641 -711.88720703 373.35644531 C-701.89060952 359.58051648 -691.49282219 346.18802814 -680.71044922 333.01904297 C-679.42023055 331.44012779 -678.13720662 329.85533873 -676.85546875 328.26953125 C-667.90278851 317.21420318 -658.54357637 306.50375287 -648.875 296.0703125 C-647.1588763 294.21244407 -645.45488951 292.34326081 -643.765625 290.4609375 C-635.57896997 281.36745299 -626.89623941 272.78463229 -618.21069336 264.17089844 C-614.5557253 260.54606239 -610.92430834 256.89840105 -607.30078125 253.2421875 C-605.8385992 251.77077616 -604.3763582 250.2994234 -602.9140625 248.828125 C-602.19283203 248.09851563 -601.47160156 247.36890625 -600.72851562 246.6171875 C-596.62709222 242.49737206 -592.43894513 238.55457782 -588.03295898 234.76220703 C-585.61007554 232.67104151 -583.26482728 230.49974907 -580.9140625 228.328125 C-576.44782736 224.25452591 -571.85734871 220.39484797 -567.15234375 216.6015625 C-564.50424811 214.43076047 -561.91509827 212.21017877 -559.33422852 209.9609375 C-552.32156757 203.85833161 -545.06622573 198.158949 -537.6484375 192.55859375 C-533.89369451 189.72254675 -530.18767577 186.8291171 -526.49023438 183.91894531 C-501.41871491 164.22298459 -474.49222016 146.69400837 -447.2265625 130.203125 C-445.9567061 129.42631252 -444.68715361 128.64900293 -443.41796875 127.87109375 C-397.11051527 99.62071391 -347.91035065 76.41965537 -297.2265625 57.203125 C-295.74784668 56.63996582 -295.74784668 56.63996582 -294.23925781 56.06542969 C-213.00955123 25.35294313 -126.91425257 7.62604661 0 0 Z " fill="#010101" transform="translate(2024.2265625,712.796875)"/>
<path d="M0 0 C1.67912979 0.00116318 1.67912979 0.00116318 3.3921814 0.00234985 C24.15223126 0.04417207 44.87631155 0.70268845 65.5625 2.5 C66.29124329 2.56280151 67.01998657 2.62560303 67.77081299 2.69030762 C113.26499489 6.6773202 159.33623484 15.04259402 202.75 29.25 C203.83142273 29.60381744 203.83142273 29.60381744 204.93469238 29.96478271 C227.92859675 37.50467769 250.61529181 45.42958257 272.75 55.25 C273.93368164 55.7744873 275.11736328 56.29897461 276.33691406 56.83935547 C291.29718235 63.52069879 305.88682545 70.7005125 320.14404297 78.77490234 C322.75730848 80.25413695 325.37984378 81.71580222 328.00390625 83.17578125 C358.59074433 100.30304586 387.43685609 120.29819572 414.75 142.25 C415.678125 142.99507812 416.60625 143.74015625 417.5625 144.5078125 C428.72262624 153.55919396 439.5607139 162.95066426 450.08666992 172.73022461 C451.30709911 173.84532393 452.54106146 174.94565897 453.7824707 176.03735352 C461.26750498 182.64701805 468.31652266 189.66441145 475.36450195 196.73413086 C477.44044426 198.81545189 479.52170422 200.89134813 481.60351562 202.96679688 C482.94823752 204.31217938 484.29264929 205.65787194 485.63671875 207.00390625 C486.24730637 207.61246964 486.85789398 208.22103302 487.48698425 208.84803772 C491.19833899 212.57929384 494.72211152 216.42818776 498.15525818 220.41714478 C500.72962153 223.37589036 503.43431864 226.20998243 506.125 229.0625 C510.79234634 234.05065137 515.23944857 239.14598881 519.51171875 244.48046875 C521.56215975 247.01757638 523.65799523 249.50342672 525.77978516 251.98046875 C531.16060326 258.26648865 536.30626509 264.70343245 541.28808594 271.31103516 C542.34140275 272.70806958 543.3970242 274.10336745 544.45410156 275.49755859 C574.15654531 314.67664685 600.61031788 355.86502049 623.75 399.25 C624.24209961 400.17103516 624.73419922 401.09207031 625.24121094 402.04101562 C635.55849525 421.41361323 645.11892157 441.11571284 654 461.1875 C654.71748413 462.80567627 654.71748413 462.80567627 655.44946289 464.45654297 C655.88379639 465.44928223 656.31812988 466.44202148 656.765625 467.46484375 C657.15008789 468.34261475 657.53455078 469.22038574 657.93066406 470.12475586 C658.75 472.25 658.75 472.25 658.75 474.25 C605.95 474.25 553.15 474.25 498.75 474.25 C492.20494186 460.0690407 492.20494186 460.0690407 489.7421875 454.62890625 C466.69269126 404.06919507 436.14960682 358.29834895 398.75 317.25 C397.96882813 316.37601563 397.18765625 315.50203125 396.3828125 314.6015625 C390.6162383 308.20399538 384.6425493 302.0380753 378.5625 295.9375 C377.44016968 294.80828125 377.44016968 294.80828125 376.29516602 293.65625 C371.60816551 288.98217558 366.77351325 284.55797895 361.75 280.25 C360.57044321 279.21617872 359.39202816 278.18105308 358.21484375 277.14453125 C333.3032029 255.33065661 306.4635685 235.78751205 277.75 219.25 C277.15010254 218.90195313 276.55020508 218.55390625 275.93212891 218.1953125 C271.24037033 215.48105154 266.50863958 212.84507039 261.75 210.25 C260.50549072 209.57130859 260.50549072 209.57130859 259.23583984 208.87890625 C234.60853138 195.54193788 209.06629463 184.780416 182.75 175.25 C181.7712793 174.8895459 180.79255859 174.5290918 179.78417969 174.15771484 C126.2258891 154.57212799 67.78669757 146.00965278 10.9375 146.11962891 C7.59630922 146.12504652 4.25524952 146.11962219 0.9140625 146.11328125 C-1.22656279 146.11394115 -3.36718801 146.11522049 -5.5078125 146.1171875 C-6.4984671 146.11516327 -7.4891217 146.11313904 -8.50979614 146.11105347 C-13.21743096 146.12702816 -17.61393379 146.3421037 -22.25 147.25 C-23.8911471 147.40534894 -25.53471452 147.53700921 -27.1796875 147.64453125 C-54.33302911 149.5461232 -80.74589309 152.97005519 -107.25 159.25 C-108.48621094 159.53327148 -109.72242188 159.81654297 -110.99609375 160.10839844 C-191.44888714 178.58803753 -267.3052924 216.80286662 -330.25 270.25 C-330.78689453 270.70342773 -331.32378906 271.15685547 -331.87695312 271.62402344 C-349.60616576 286.63397146 -367.2047054 302.50819639 -382.25 320.25 C-383.21071191 321.34899358 -384.1731216 322.44650407 -385.13671875 323.54296875 C-409.31270804 351.10279348 -430.83799596 380.97491758 -448.90625 412.90234375 C-453.03611237 420.19442227 -457.22923469 426.81562514 -462.7956543 433.09448242 C-469.16234326 440.30049204 -474.7399396 448.12174412 -480.45703125 455.84423828 C-482.05803772 457.9924297 -483.67781826 460.12348755 -485.3125 462.24609375 C-537.91633557 530.7305 -576.76136612 612.32423777 -606.96630859 749.79003906 C-607.22549149 752.03748045 -607.50620348 754.28040029 -607.80078125 756.5234375 C-608.21879706 759.72077981 -608.61403668 762.9194031 -608.9940033 766.12142944 C-609.16030709 767.50421817 -609.33131667 768.88645198 -609.50782776 770.26797485 C-611.53494366 786.30400085 -611.60796904 802.29330984 -611.5625 818.4375 C-611.56027857 819.82852166 -611.558102 821.21954339 -611.55596924 822.61056519 C-611.51273909 842.96164684 -611.13384857 863.06811937 -608.25 883.25 C-608.14582764 883.98400024 -608.04165527 884.71800049 -607.93432617 885.47424316 C-605.31760534 903.79224331 -602.26519873 921.99593836 -597.80712891 939.96533203 C-597.26240065 942.19914753 -596.75545722 944.43800914 -596.26171875 946.68359375 C-593.88465393 957.42440518 -590.72624511 967.8176735 -587.25 978.25 C-586.90195313 979.30735352 -586.55390625 980.36470703 -586.1953125 981.45410156 C-563.03305606 1051.55986221 -526.9009805 1116.00498305 -478.87890625 1172.1484375 C-476.3827295 1175.074486 -473.97073366 1178.06356752 -471.5625 1181.0625 C-468.36831705 1184.99117422 -465.03945732 1188.62089272 -461.3671875 1192.10546875 C-459.53725878 1193.95903124 -457.85476055 1195.85287605 -456.16015625 1197.828125 C-451.61624239 1203.06027262 -446.72106018 1207.92487184 -441.8125 1212.8125 C-440.90951172 1213.71935547 -440.00652344 1214.62621094 -439.07617188 1215.56054688 C-434.50863084 1220.12147308 -429.88976135 1224.55144911 -424.99047852 1228.75463867 C-422.58598492 1230.8204997 -420.26586651 1232.97406733 -417.9375 1235.125 C-412.53508543 1240.0457178 -406.94831141 1244.67792553 -401.25 1249.25 C-400.12979484 1250.16225289 -399.01002295 1251.07503803 -397.890625 1251.98828125 C-369.49126746 1275.05815652 -339.20868384 1295.46703805 -307.25 1313.25 C-306.31559082 1313.77207031 -305.38118164 1314.29414063 -304.41845703 1314.83203125 C-253.00466593 1343.46006599 -197.33595061 1366.00726702 -139.65625 1378.27734375 C-137.02184283 1378.83909847 -134.50022586 1379.47010913 -131.91015625 1380.23046875 C-126.72491736 1381.67480957 -121.47769197 1382.64459609 -116.1875 1383.625 C-115.02605469 1383.84124023 -113.86460937 1384.05748047 -112.66796875 1384.28027344 C-102.09037463 1386.19605578 -91.47537798 1387.65687803 -80.81225586 1388.99365234 C-79.60577393 1389.14527832 -78.39929199 1389.2969043 -77.15625 1389.453125 C-76.08697266 1389.58364258 -75.01769531 1389.71416016 -73.91601562 1389.84863281 C-71.25 1390.25 -71.25 1390.25 -68.25 1391.25 C-64.8048204 1391.70734581 -61.33769851 1391.95763495 -57.875 1392.25 C-56.9675 1392.3325 -56.06 1392.415 -55.125 1392.5 C-37.31874394 1394.03584958 -19.48959502 1394.4572191 -1.625 1394.4375 C-0.59863434 1394.43689575 0.42773132 1394.4362915 1.48519897 1394.43566895 C76.66484635 1394.31718592 152.41565871 1384.84804872 223.75 1360.25 C224.93835449 1359.84555664 226.12670898 1359.44111328 227.35107422 1359.02441406 C272.33188572 1343.69511802 316.19298842 1324.44257569 356.95117188 1299.93164062 C359.71572823 1298.27059176 362.48925601 1296.62558812 365.265625 1294.984375 C374.26609499 1289.64965935 383.14845586 1284.21373727 391.75 1278.25 C392.45527832 1277.76337891 393.16055664 1277.27675781 393.88720703 1276.77539062 C416.16480138 1261.38744223 437.56066724 1245.21517735 458.13916016 1227.62255859 C459.78894684 1226.21681432 461.44654745 1224.82072891 463.10546875 1223.42578125 C477.79463376 1211.02588871 491.53145102 1197.6380931 505.09887695 1184.03149414 C507.33885186 1181.7860842 509.58422696 1179.54617161 511.83007812 1177.30664062 C513.28417542 1175.85188354 514.73796303 1174.39681682 516.19140625 1172.94140625 C516.84879288 1172.28604385 517.5061795 1171.63068146 518.18348694 1170.95545959 C522.02323992 1167.09644986 525.68178814 1163.12782596 529.23500061 1159.00311279 C531.31250193 1156.59908929 533.46912316 1154.27121854 535.625 1151.9375 C539.71880209 1147.44851943 543.60469667 1142.83756524 547.41796875 1138.109375 C549.45459542 1135.61220461 551.53287127 1133.15823951 553.63427734 1130.71557617 C559.4801262 1123.90726274 564.95103379 1116.85509443 570.36328125 1109.69921875 C572.62114326 1106.71779226 574.90962139 1103.76468534 577.23046875 1100.83203125 C584.50140338 1091.63557623 591.3099456 1082.24164115 597.85546875 1072.515625 C600.13446275 1069.13289305 602.49606313 1065.83079625 604.9375 1062.5625 C609.48387367 1056.38629425 613.45023757 1049.86373466 617.46337891 1043.33496094 C619.1446784 1040.61042627 620.84914957 1037.90078307 622.55395508 1035.19091797 C654.10335708 984.9689213 679.82612083 931.71730152 700.75 876.25 C698.77 875.26 696.79 874.27 694.75 873.25 C694.75 872.92 694.75 872.59 694.75 872.25 C748.54 872.25 802.33 872.25 857.75 872.25 C850.86815444 902.07133078 850.86815444 902.07133078 847.6875 911.8125 C847.04947876 913.81338723 846.41278606 915.81469851 845.77734375 917.81640625 C845.4522583 918.83323486 845.12717285 919.85006348 844.79223633 920.89770508 C843.82329373 924.01425482 842.90558427 927.14041415 842.0020752 930.27627563 C839.21121486 939.94594926 836.04401171 949.45062734 832.6875 958.9375 C832.40621246 959.73469452 832.12492493 960.53188904 831.83511353 961.35324097 C814.38097585 1010.70807019 792.97811664 1059.51899956 766.29980469 1104.62451172 C764.69414882 1107.34461619 763.11645658 1110.07983072 761.5390625 1112.81640625 C746.36451705 1138.86749194 729.55479575 1164.39012871 711.21630859 1188.32617188 C709.69396439 1190.32351992 708.1979142 1192.33845335 706.70703125 1194.359375 C700.10966167 1203.28504061 693.21704675 1211.9326287 686.171875 1220.5078125 C684.2534517 1222.85840809 682.37711766 1225.24135852 680.5 1227.625 C677.16762198 1231.80968434 673.61800759 1235.75786945 670.01171875 1239.70703125 C667.79294269 1242.20171729 665.70511239 1244.76412723 663.625 1247.375 C658.03373071 1254.27445188 651.90897148 1260.65621592 645.79541016 1267.09130859 C643.70313355 1269.29946206 641.62162097 1271.5173017 639.54296875 1273.73828125 C621.82051953 1292.66865693 621.82051953 1292.66865693 612.98046875 1300.23828125 C610.13123182 1302.80808338 607.4458811 1305.52102261 604.75 1308.25 C600.86555731 1312.17724813 596.93895916 1315.96705642 592.73046875 1319.55078125 C590.42330048 1321.53030432 588.18353218 1323.5764212 585.9375 1325.625 C581.63688908 1329.50667774 577.20569676 1333.18509634 572.69921875 1336.82421875 C570.64955187 1338.5101037 568.63741919 1340.2073139 566.64453125 1341.95703125 C557.47286007 1350.00223692 547.83129901 1357.29361772 538.02832031 1364.55029297 C535.0062868 1366.80483619 532.03443129 1369.11730803 529.0625 1371.4375 C522.15905458 1376.76957293 515.04247087 1381.78366095 507.88330078 1386.76513672 C505.84481364 1388.18400589 503.81097241 1389.60933691 501.77734375 1391.03515625 C492.32145079 1397.63229087 482.64707764 1403.84588122 472.85839844 1409.93652344 C471.09165941 1411.03715521 469.33032373 1412.14645406 467.5703125 1413.2578125 C412.29941065 1447.85829577 353.3909969 1474.6656926 292.03988647 1496.43572998 C289.74210772 1497.25280645 287.44671269 1498.07631541 285.15161133 1498.90087891 C277.51858332 1501.6337953 269.88596557 1504.23292589 262.0625 1506.375 C260.27082655 1506.87627783 258.47915989 1507.37757993 256.6875 1507.87890625 C255.84058594 1508.11367676 254.99367188 1508.34844727 254.12109375 1508.59033203 C250.92928015 1509.47833454 247.74595676 1510.39504545 244.5625 1511.3125 C243.44746094 1511.62832031 242.33242187 1511.94414062 241.18359375 1512.26953125 C238.83807499 1512.93929827 236.49704408 1513.6249324 234.16015625 1514.32421875 C189.88150139 1527.36655685 143.25648779 1535.00576693 97.37915039 1539.29980469 C96.19184326 1539.41098633 95.00453613 1539.52216797 93.78125 1539.63671875 C92.73517578 1539.73170654 91.68910156 1539.82669434 90.61132812 1539.92456055 C87.84162817 1540.19019726 87.84162817 1540.19019726 85.52487183 1540.73744202 C79.21350331 1541.90324084 72.69298188 1541.95199782 66.2890625 1542.296875 C65.47372669 1542.34124443 64.65839088 1542.38561386 63.81834793 1542.43132782 C46.82236079 1543.33698936 29.85502671 1543.56053835 12.83789062 1543.51074219 C8.90513579 1543.49932902 4.97265133 1543.50616763 1.03990555 1543.51761723 C-27.29380473 1543.58748787 -55.58780578 1542.59590496 -83.75 1539.3125 C-85.3081534 1539.13788485 -86.86634099 1538.96357455 -88.42456055 1538.78955078 C-97.5993483 1537.75001886 -106.73684808 1536.56319775 -115.83203125 1534.9609375 C-119.67503829 1534.29624431 -123.53191641 1533.8691862 -127.40625 1533.42578125 C-137.68769481 1532.19753169 -147.79648681 1530.12433303 -157.9375 1528.0625 C-159.41559647 1527.76428848 -159.41559647 1527.76428848 -160.92355347 1527.46005249 C-182.70563262 1523.0589627 -204.35270516 1518.3131558 -225.58203125 1511.68359375 C-228.60754569 1510.74066577 -231.63848889 1509.85649121 -234.69921875 1509.03515625 C-300.57933805 1491.2899266 -365.46428185 1462.78057518 -424.25 1428.25 C-425.34425293 1427.61175293 -426.43850586 1426.97350586 -427.56591797 1426.31591797 C-441.33620803 1418.28354176 -455.00691613 1410.13228596 -468.25 1401.25 C-469.18521484 1400.62512695 -470.12042969 1400.00025391 -471.08398438 1399.35644531 C-490.68852282 1386.23095262 -509.64616783 1372.43853623 -528.19238281 1357.86230469 C-530.10882311 1356.36062318 -532.03295898 1354.86963458 -533.9609375 1353.3828125 C-542.11122781 1347.07761496 -549.9323986 1340.44646591 -557.66845703 1333.640625 C-559.62626579 1331.91915561 -561.59490342 1330.21026503 -563.5625 1328.5 C-568.16481692 1324.46062742 -572.71430275 1320.36392283 -577.25 1316.25 C-578.18199219 1315.41210938 -579.11398437 1314.57421875 -580.07421875 1313.7109375 C-590.50015345 1304.26588725 -600.34474547 1294.2343172 -610.25 1284.25 C-613.08120982 1281.41038896 -615.92363391 1278.58263413 -618.7734375 1275.76171875 C-630.94197851 1263.69514437 -630.94197851 1263.69514437 -635.58984375 1258.19140625 C-637.70702462 1255.71555003 -639.91781829 1253.33338732 -642.125 1250.9375 C-646.19417391 1246.47611655 -650.04977816 1241.89055282 -653.83984375 1237.19140625 C-656.06746317 1234.47277185 -658.34327329 1231.80837635 -660.64550781 1229.15332031 C-666.36464854 1222.55765517 -671.78866773 1215.80500644 -677.04541016 1208.83691406 C-679.02679195 1206.22666241 -681.04991125 1203.64872516 -683.0625 1201.0625 C-691.47449799 1190.16282276 -699.44651662 1178.92287583 -707.3125 1167.625 C-707.75327881 1166.99875732 -708.19405762 1166.37251465 -708.64819336 1165.72729492 C-713.30659071 1158.9762687 -716.55968883 1151.9425901 -719.08984375 1144.15625 C-719.33867813 1143.40645874 -719.58751251 1142.65666748 -719.84388733 1141.88415527 C-720.63076785 1139.50793419 -721.40912782 1137.12901975 -722.1875 1134.75 C-722.70455179 1133.18732575 -723.22212657 1131.62482444 -723.74023438 1130.0625 C-726.42778213 1121.93519522 -729.04204188 1113.78748784 -731.57901001 1105.61195374 C-732.61554136 1102.27224622 -733.66754537 1098.93978888 -734.76953125 1095.62109375 C-739.27492736 1081.99256838 -742.75605359 1068.09702386 -746.25634766 1054.18505859 C-747.19203362 1050.46998562 -748.14749525 1046.76017355 -749.10546875 1043.05078125 C-755.30656288 1018.89567184 -760.18688868 994.59182174 -764.15844727 969.98242188 C-764.39073054 968.54426159 -764.62307034 967.10611043 -764.85546875 965.66796875 C-764.96892639 964.96428665 -765.08238403 964.26060455 -765.19927979 963.53559875 C-765.98769798 958.70222965 -766.87592663 953.89407792 -767.8046875 949.0859375 C-769.2278091 941.65141257 -770.29157096 934.20300147 -771.1875 926.6875 C-771.30915024 925.6750975 -771.30915024 925.6750975 -771.43325806 924.64224243 C-775.0418163 894.36067426 -777.95660467 863.75503222 -778.25 833.25 C-778.25988953 832.35317505 -778.26977905 831.4563501 -778.27996826 830.53234863 C-778.80050319 782.17713242 -776.83165959 734.8453733 -770.90625 686.8671875 C-770.70153831 685.19813354 -770.70153831 685.19813354 -770.49269104 683.49536133 C-769.63355419 676.69765842 -768.53470221 669.97949118 -767.25 663.25 C-766.89031285 661.25135823 -766.53087226 659.25267205 -766.171875 657.25390625 C-752.25025562 580.39583541 -728.77510273 506.7937084 -694.02734375 436.83544922 C-692.49164346 433.74311656 -690.97649855 430.64123079 -689.46875 427.53515625 C-683.25749537 414.80707445 -676.3898302 402.4787478 -669.25 390.25 C-668.72486816 389.35007324 -668.19973633 388.45014648 -667.65869141 387.52294922 C-660.18444336 374.8035336 -652.17764232 362.46146337 -644 350.1875 C-643.31020554 349.15124481 -643.31020554 349.15124481 -642.60647583 348.09405518 C-634.47282109 335.89566276 -626.08998717 323.88706389 -617.25 312.1875 C-616.74927979 311.52322998 -616.24855957 310.85895996 -615.73266602 310.17456055 C-614.24064073 308.19803474 -612.74541192 306.22396398 -611.25 304.25 C-610.81155762 303.66831055 -610.37311523 303.08662109 -609.92138672 302.48730469 C-604.46313498 295.25023832 -598.79332641 288.25079587 -592.8984375 281.3671875 C-590.48061025 278.5385559 -588.14229574 275.65173115 -585.8125 272.75 C-581.43665755 267.36857796 -576.75691185 262.31001431 -572.02734375 257.2421875 C-569.86922281 254.92759738 -567.7582619 252.58104254 -565.6875 250.1875 C-557.47937197 240.75976804 -548.88883552 231.78598879 -540.0625 222.9375 C-539.58932343 222.46173523 -539.11614685 221.98597046 -538.62863159 221.49578857 C-533.57530121 216.42069498 -528.48197145 211.46150643 -523.04418945 206.79907227 C-520.26858761 204.40266545 -517.61160175 201.88326271 -514.9375 199.375 C-510.14004372 194.91173293 -505.21837627 190.68025571 -500.10546875 186.578125 C-497.47841753 184.43623372 -494.9168348 182.23946349 -492.36254883 180.01245117 C-484.68326702 173.32801239 -476.70930979 167.10678786 -468.56982422 160.99462891 C-466.13580886 159.1641223 -463.7101717 157.32287812 -461.28515625 155.48046875 C-451.72564481 148.23760771 -442.07344182 141.19098352 -432.11621094 134.50439453 C-430.29392713 133.27952611 -428.47856939 132.04494406 -426.6640625 130.80859375 C-398.75561842 111.88593824 -369.37385824 95.34790675 -339.25 80.25 C-337.65937744 79.45166748 -337.65937744 79.45166748 -336.03662109 78.63720703 C-290.05934932 55.71037833 -241.34527102 37.83230782 -191.60131836 25.12451172 C-189.12185743 24.47750734 -186.65143706 23.81218944 -184.18188477 23.12939453 C-171.96952322 19.78302303 -159.66470063 17.17255519 -147.2355957 14.76513672 C-143.95008916 14.12744347 -140.66740662 13.47648346 -137.38476562 12.82421875 C-124.45696874 10.28290301 -111.53684095 8.17106665 -98.46444702 6.53033447 C-95.68784166 6.17883444 -92.91640767 5.79309239 -90.14453125 5.40625 C-60.22152548 1.43831878 -30.16527761 -0.03482774 0 0 Z " fill="#FEFEFE" transform="translate(2036.25,945.75)"/>
<path d="M0 0 C0.87664307 0.10632751 1.75328613 0.21265503 2.65649414 0.32220459 C21.26524304 2.5876898 39.67760047 5.19089043 57.97705078 9.33203125 C62.5431835 10.34099096 67.12766501 11.25570396 71.71118164 12.18188477 C92.22973053 16.34259425 112.524687 20.98279523 132.51318359 27.23339844 C135.01905546 28.00587415 137.53261196 28.74524798 140.05078125 29.4765625 C196.07298905 45.87343229 251.87045194 68.07494633 302.76464844 96.75537109 C305.87307218 98.48612079 309.02845206 100.11342776 312.1875 101.75 C343.69389924 118.49758763 374.01461944 138.22949503 402.7421875 159.34375 C405.08250174 161.06052031 407.4312867 162.76521674 409.78125 164.46875 C419.52190827 171.55491697 428.99477128 178.88944 438.27197266 186.57177734 C440.73154178 188.60462269 443.21088815 190.61297623 445.6875 192.625 C455.35525117 200.5586254 464.80951796 208.64165314 473.95703125 217.171875 C476.56747085 219.6060104 479.21210436 221.99820059 481.875 224.375 C492.86565993 234.26133525 503.5346682 244.43485978 514 254.875 C514.49454681 255.36695862 514.98909363 255.85891724 515.49862671 256.36578369 C520.6586849 261.50450825 525.72154068 266.68401128 530.46191406 272.21679688 C532.85359698 274.98963053 535.37010483 277.64235426 537.875 280.3125 C542.39309339 285.16349069 546.64698207 290.15959276 550.796875 295.33203125 C553.06927818 298.08389538 555.44694831 300.69738143 557.875 303.3125 C562.59233815 308.4447892 566.88397126 313.81933366 571.14453125 319.328125 C573.56593457 322.45845629 576.04296926 325.53962018 578.53540039 328.61352539 C583.73602015 335.03801601 588.67649724 341.58500532 593.421875 348.3515625 C595.147848 350.81100794 596.90830719 353.23879911 598.703125 355.6484375 C606.43398126 366.07634521 613.61807497 376.84573811 620.75 387.6875 C621.2395517 388.42994965 621.72910339 389.17239929 622.23348999 389.93734741 C628.73987289 399.8165319 634.99786497 409.8070521 641 420 C641.61488281 421.03632568 642.22976563 422.07265137 642.86328125 423.14038086 C652.26046846 439.03184384 660.96500076 455.19434085 669.30566406 471.65820312 C670.83697461 474.67845942 672.38120417 477.69165086 673.9296875 480.703125 C703.31773214 538.19690333 727.32098011 601.60490053 740 665 C686.87 665 633.74 665 579 665 C573.06 650.645 573.06 650.645 567 636 C560.34036911 620.83084075 553.24933042 605.89434531 546 591 C545.57074219 590.11280273 545.14148437 589.22560547 544.69921875 588.31152344 C538.48879895 575.50130037 531.68676182 563.08700916 524.58300781 550.75146484 C523.09678329 548.16822141 521.62116799 545.57923422 520.1484375 542.98828125 C514.19861548 532.56199739 507.93748967 522.36330073 501.45117188 512.26269531 C500.08009632 510.12488774 498.71870481 507.98122568 497.359375 505.8359375 C478.8881849 476.82316116 458.22485882 449.42972211 436.48095703 422.81738281 C435.1572093 421.19292219 433.84171191 419.56174654 432.52734375 417.9296875 C427.97316075 412.29117521 423.23425206 406.8780057 418.328125 401.54296875 C416.39305738 399.42932946 414.49791703 397.29340152 412.625 395.125 C402.7330983 383.7855399 392.23197925 373.07238926 381.58056641 362.45019531 C379.23613323 360.11116519 376.89715129 357.76677803 374.55859375 355.421875 C373.04459166 353.90853313 371.5302797 352.39550119 370.015625 350.8828125 C369.32897766 350.19414093 368.64233032 349.50546936 367.93487549 348.79592896 C363.99544106 344.87526973 359.95424507 341.12978563 355.74171448 337.50360107 C353.34067442 335.43081219 351.01729058 333.27724822 348.6875 331.125 C344.27646827 327.10619407 339.76264642 323.27134676 335.1171875 319.52734375 C332.78762058 317.64952084 330.48742603 315.73975883 328.1953125 313.81640625 C318.51998274 305.71903711 308.58042892 298.0963581 298.35546875 290.70703125 C296.0619727 289.04491222 293.77976914 287.36838058 291.5 285.6875 C274.94417703 273.5286066 257.65191426 262.49420956 240 252 C239.24299805 251.54866699 238.48599609 251.09733398 237.70605469 250.63232422 C202.77370413 229.92816071 166.03852658 212.878341 127.99884033 198.74609375 C126.00152299 198.00056848 124.00796675 197.24571161 122.01513672 196.48828125 C99.66168637 188.01345026 76.97096349 181.77451807 53.74560547 176.15771484 C50.72275258 175.42544538 47.70664671 174.67321698 44.69580078 173.89306641 C35.89465974 171.61711742 27.09725119 169.83515223 18.125 168.375 C15.66906286 167.96739699 13.21332906 167.5585666 10.7578125 167.1484375 C9.58677979 166.95411133 8.41574707 166.75978516 7.20922852 166.55957031 C4.56994423 166.09937712 1.9645064 165.57759901 -0.65234375 165.0078125 C-8.02839002 163.501056 -15.52573092 162.71271291 -22.99584961 161.82275391 C-25.60975672 161.50932214 -28.22179109 161.18283119 -30.83398438 160.85546875 C-58.24006597 157.50540526 -85.55210668 156.66424815 -113.12573242 156.73925781 C-117.35049673 156.75067913 -121.57500971 156.74384584 -125.79976559 156.73237896 C-145.62645181 156.68673265 -165.24211254 157.16812028 -185 159 C-185.81973297 159.073255 -186.63946594 159.14651001 -187.48403931 159.22198486 C-192.18493647 159.64629086 -196.87367566 160.14351415 -201.5625 160.6875 C-202.26192719 160.76792542 -202.96135437 160.84835083 -203.68197632 160.93121338 C-246.8929082 165.95320021 -290.21398406 173.84160272 -332 186 C-333.0523584 186.30389648 -334.1047168 186.60779297 -335.18896484 186.92089844 C-383.40111451 200.90073019 -429.46798599 219.17352927 -474.53857422 241.30517578 C-477.76016996 242.88257158 -480.9900803 244.44136134 -484.22265625 245.99609375 C-498.64777885 252.99565078 -512.36679554 260.94432951 -526.06787109 269.24169922 C-528.4935176 270.69627925 -530.93036015 272.11616107 -533.39453125 273.50390625 C-554.88067356 285.62738699 -575.20348728 300.32017471 -595 315 C-595.55059082 315.40573242 -596.10118164 315.81146484 -596.66845703 316.22949219 C-608.72633767 325.11971894 -620.47884795 334.42608491 -632 344 C-632.76328613 344.63373535 -632.76328613 344.63373535 -633.54199219 345.28027344 C-640.54770308 351.11055807 -647.37672894 357.0893399 -654.05078125 363.296875 C-656.28777769 365.36775014 -658.5705725 367.37887836 -660.87109375 369.37890625 C-671.86838325 378.96828317 -682.29533954 389.20191408 -692.625 399.5 C-693.45354492 400.32395264 -694.28208984 401.14790527 -695.13574219 401.99682617 C-699.37689036 406.24874524 -703.45778966 410.57535739 -707.37353516 415.12841797 C-709.95723792 418.10149894 -712.67268376 420.94767262 -715.375 423.8125 C-720.02639178 428.78318955 -724.4515005 433.86221192 -728.70703125 439.1796875 C-730.83461749 441.79658233 -733.01989766 444.3445157 -735.23583984 446.88598633 C-741.96106932 454.60991563 -748.19453952 462.6481609 -754.35449219 470.82666016 C-755.98637256 472.98200127 -757.63439956 475.1238313 -759.2890625 477.26171875 C-770.02577912 491.14623093 -780.12902252 505.43222455 -789.75683594 520.10644531 C-790.58837701 521.37302673 -791.42238067 522.6379947 -792.25878906 523.90136719 C-826.82903524 576.13909235 -855.3893418 632.29806401 -877.24407959 690.97186279 C-877.95856508 692.88882996 -878.67762878 694.80408894 -879.39697266 696.71923828 C-896.71633514 743.03546111 -909.41732058 791.31611413 -918 840 C-918.22204102 841.25377441 -918.44408203 842.50754883 -918.67285156 843.79931641 C-927.28181642 893.68067162 -931.13874473 944.06385115 -931.1875 994.625 C-931.18876892 995.89024506 -931.19003784 997.15549011 -931.19134521 998.45907593 C-931.18853359 1023.16699783 -930.44659089 1047.7100667 -928.125 1072.3125 C-927.94362713 1074.27910629 -927.76256112 1076.24574091 -927.58178711 1078.21240234 C-927.14225603 1082.96819187 -926.69303198 1087.72299936 -926.23956299 1092.47747803 C-926.02363315 1094.75115046 -925.81130842 1097.02511147 -925.60107422 1099.29931641 C-924.25784231 1113.73120695 -922.52251094 1128.08702331 -920.5 1142.4375 C-920.39817413 1143.16753235 -920.29634827 1143.8975647 -920.19143677 1144.64971924 C-919.01256293 1153.04156944 -917.59468331 1161.33163571 -915.75390625 1169.60864258 C-914.49691426 1175.26307127 -913.37063649 1180.94224572 -912.25 1186.625 C-912.01667969 1187.76839844 -911.78335937 1188.91179687 -911.54296875 1190.08984375 C-911.32769531 1191.18683594 -911.11242188 1192.28382812 -910.890625 1193.4140625 C-910.69500977 1194.3932666 -910.49939453 1195.3724707 -910.29785156 1196.38134766 C-910.00655221 1198.94239423 -910.18515312 1200.57908849 -911 1203 C-923.28063787 1171.76953115 -935.23038647 1140.3384814 -944.41455078 1108.03271484 C-944.9938359 1106.02140211 -945.59955078 1104.02009551 -946.21484375 1102.01953125 C-956.39215921 1068.74300318 -963.14120012 1034.51698481 -968.64715576 1000.19543457 C-968.98965976 998.06433808 -969.33666218 995.93401067 -969.68408203 993.80371094 C-973.91366257 967.67380859 -976.09659063 941.38980606 -978 915 C-978.08776199 913.84669189 -978.17552399 912.69338379 -978.26594543 911.50512695 C-978.89641856 902.81512032 -979.15946028 894.18021961 -979.16796875 885.46875 C-979.17205552 884.11679018 -979.17633833 882.76483094 -979.18080139 881.41287231 C-979.19229859 877.10856712 -979.19098466 872.80431554 -979.1875 868.5 C-979.18723312 867.76503044 -979.18696625 867.03006088 -979.18669128 866.27281952 C-979.17056898 830.94150462 -977.67941669 796.14722896 -973.26104736 761.07623291 C-973.0066623 759.05298843 -972.75644539 757.02926971 -972.50732422 755.00537109 C-969.0231322 726.92271254 -964.35003474 699.23621306 -957.86425781 671.69824219 C-957.03248392 668.13900183 -956.22613023 664.57510681 -955.4296875 661.0078125 C-952.40770874 647.52083321 -949.00524512 634.22781959 -945 621 C-944.67660645 619.92443848 -944.35321289 618.84887695 -944.02001953 617.74072266 C-935.55756784 589.69430351 -926.04796937 562.13529424 -915 535 C-914.57138672 533.94312988 -914.14277344 532.88625977 -913.70117188 531.79736328 C-898.65680531 494.90421245 -881.0778429 458.87437611 -860.60400391 424.69042969 C-859.12699792 422.2130163 -857.67432485 419.72339365 -856.23046875 417.2265625 C-842.03427452 392.86323779 -825.89460311 369.22691741 -809.125 346.5625 C-808.52985596 345.75683594 -807.93471191 344.95117188 -807.3215332 344.12109375 C-797.06500287 330.29391363 -786.23773164 316.93531835 -775.07714844 303.82910156 C-772.24181176 300.49329546 -769.48018329 297.11049296 -766.75 293.6875 C-761.80658149 287.61010736 -756.43054048 281.96197098 -751.0390625 276.28515625 C-747.96783712 273.05071252 -744.96671697 269.7590497 -741.97265625 266.453125 C-735.78095975 259.65600216 -729.30312983 253.15175325 -722.79223633 246.66186523 C-720.80107223 244.67610324 -718.81536779 242.6849926 -716.83007812 240.69335938 C-705.65247117 229.50990661 -705.65247117 229.50990661 -699.71606445 224.47094727 C-696.60265191 221.80224467 -693.6631344 218.94512585 -690.6875 216.125 C-685.5649753 211.30741768 -680.35089469 206.71232895 -674.8515625 202.32421875 C-672.09540616 200.07776256 -669.42498931 197.75916562 -666.75830078 195.40844727 C-658.82854727 188.42545328 -650.59069557 181.96369289 -642.14404297 175.62060547 C-640.03253191 174.02458971 -637.93772645 172.40912055 -635.84765625 170.78515625 C-563.30552713 114.49260074 -480.05513411 70.34168901 -367 32 C-366.02691895 31.68772461 -365.05383789 31.37544922 -364.05126953 31.05371094 C-358.39837706 29.25284697 -352.71532308 27.59077151 -347 26 C-345.84048828 25.67467285 -344.68097656 25.3493457 -343.48632812 25.01416016 C-322.15491076 19.05632078 -300.67833501 14.18173915 -278.97070312 9.80761719 C-275.78127573 9.16301752 -272.59994006 8.48784657 -269.421875 7.7890625 C-255.0289974 4.66317739 -240.41316184 2.84238672 -225.82188416 0.91267395 C-220.9986191 0.27353622 -216.18201632 -0.40101571 -211.3671875 -1.1015625 C-141.30254712 -11.09205296 -70.04604101 -8.54109589 0 0 Z " fill="#FEFEFE" transform="translate(2154,755)"/>
<path d="M0 0 C1.09760436 3.29281308 0.90245398 4.31110016 0.14453125 7.6015625 C-0.06389404 8.54942627 -0.27231934 9.49729004 -0.48706055 10.47387695 C-0.71820557 11.51374756 -0.94935059 12.55361816 -1.1875 13.625 C-4.485816 29.3072763 -6.36061324 45.07452863 -8 61 C-8.12004395 62.13115234 -8.24008789 63.26230469 -8.36376953 64.42773438 C-15.20687913 131.5330416 -7.68554692 201.83776162 13 266 C13.37286133 267.1662793 13.74572266 268.33255859 14.12988281 269.53417969 C27.09439798 309.91667689 43.7684528 348.79671639 66 385 C66.69561035 386.13598633 66.69561035 386.13598633 67.40527344 387.29492188 C89.84111567 423.77377291 116.55842506 456.93528087 147 487 C149.47467935 489.46715753 151.94168077 491.94082453 154.39453125 494.4296875 C159.42579843 499.51785108 164.54246326 504.37545571 170 509 C170.92039062 509.79792969 171.84078125 510.59585937 172.7890625 511.41796875 C181.57080062 518.99478044 190.71912878 526.04796392 200 533 C200.65291016 533.49032715 201.30582031 533.9806543 201.97851562 534.48583984 C211.10503738 541.32140887 220.4085005 547.83324693 230 554 C230.76521973 554.49226074 231.53043945 554.98452148 232.31884766 555.49169922 C293.70758281 594.74183891 364.0934913 622.85655125 436.50634766 632.65283203 C439.01273947 633.0017736 441.51166324 633.38575713 444.01171875 633.77734375 C485.58230547 640.13741932 530.23291318 640.75788105 572 636 C573.32712755 635.85348908 574.65427729 635.70717905 575.98144531 635.56103516 C580.28190399 635.0828963 584.57896089 634.57873777 588.875 634.0625 C589.54172729 633.98318237 590.20845459 633.90386475 590.89538574 633.82214355 C598.72985743 632.87553709 606.3436506 631.57537139 614.01171875 629.71166992 C618.33358826 628.68240116 622.69143064 627.9116631 627.0625 627.125 C650.08200113 622.78379218 671.90386917 615.66240365 694 608 C694.64700867 607.77658936 695.29401733 607.55317871 695.96063232 607.32299805 C714.20549054 601.01589635 731.63345885 593.41391092 749 585 C750.49104248 584.28626221 750.49104248 584.28626221 752.01220703 583.55810547 C766.13865955 576.78481917 779.65252199 569.19638221 793 561 C793.85287598 560.47728516 794.70575195 559.95457031 795.58447266 559.41601562 C806.01516017 552.99527189 816.15569373 546.28670347 826 539 C826.62438965 538.54157715 827.2487793 538.0831543 827.89208984 537.61083984 C840.90616338 528.04690368 853.70984765 518.14801355 865.59375 507.1953125 C867.64144807 505.32712043 869.71399602 503.49922263 871.8046875 501.6796875 C883.30614436 491.63665176 894.12786531 481.0420915 904.40234375 469.75048828 C905.92448168 468.08274241 907.45926997 466.42790699 909 464.77734375 C914.9418176 458.39701188 920.59126432 451.83715549 926 445 C926.51433594 444.35289062 927.02867187 443.70578125 927.55859375 443.0390625 C936.08882887 432.28269212 944.22671623 421.31466207 952 410 C952.42200684 409.3915625 952.84401367 408.783125 953.27880859 408.15625 C973.43291631 379.038553 990.46872282 347.06708172 1003.9765625 314.3515625 C1005 312 1005 312 1006 311 C1008.13893267 310.90307937 1010.28112967 310.87813197 1012.42225647 310.87974548 C1013.44034264 310.87846385 1013.44034264 310.87846385 1014.47899622 310.87715632 C1016.76995926 310.87549959 1019.06085026 310.881026 1021.35180664 310.88647461 C1022.98740131 310.88675647 1024.6229961 310.88659878 1026.2585907 310.8860321 C1030.71294586 310.88574407 1035.16727434 310.89164176 1039.62162328 310.89860606 C1044.27146474 310.90483861 1048.92130674 310.90544332 1053.57115173 310.90663147 C1062.38261702 310.90974508 1071.19406997 310.91795887 1080.00552982 310.92798096 C1090.03438108 310.93914118 1100.06323291 310.94465232 1110.09208882 310.94967639 C1130.72806611 310.96014146 1151.36403228 310.97774147 1172 311 C1171.06273168 313.51921611 1170.12366564 316.03773834 1169.18359375 318.5559082 C1168.92203491 319.25949715 1168.66047607 319.96308609 1168.39099121 320.68799591 C1165.80243742 327.61404879 1162.9520855 334.40780029 1160 341.1875 C1159.72443268 341.82140656 1159.44886536 342.45531311 1159.16494751 343.10842896 C1144.53380135 376.69368986 1127.96603594 409.65141179 1109 441 C1108.47905762 441.8667334 1107.95811523 442.7334668 1107.42138672 443.62646484 C1089.97825241 472.57382694 1070.65992545 500.26972159 1050 527 C1049.46955078 527.68787598 1048.93910156 528.37575195 1048.39257812 529.08447266 C1042.6434163 536.52669774 1036.71465177 543.78379816 1030.6015625 550.9296875 C1028.25742299 553.67734045 1026.00116684 556.48800228 1023.75 559.3125 C1019.30646967 564.77900134 1014.51697547 569.88760347 1009.66699219 574.99145508 C1006.38222902 578.44819767 1003.16025462 581.94096091 1000.00390625 585.515625 C994.08356993 592.1193683 987.79493291 598.35474695 981.51586914 604.61450195 C979.43454811 606.69044426 977.35865187 608.77170422 975.28320312 610.85351562 C973.93782062 612.19823752 972.59212806 613.54264929 971.24609375 614.88671875 C970.33324867 615.80260017 970.33324867 615.80260017 969.40196228 616.73698425 C965.64957179 620.46936063 961.7770305 624.01298684 957.76876831 627.46934509 C955.36063021 629.55329717 953.02661306 631.71413973 950.6875 633.875 C946.17574807 637.98902173 941.54435568 641.90109809 936.79296875 645.734375 C933.95478349 648.03667913 931.16523516 650.38991023 928.375 652.75 C898.71150381 677.48232221 866.3070472 698.68226324 832.64160156 717.52050781 C830.88845759 718.50239806 829.13777254 719.48869233 827.38964844 720.47949219 C795.79575271 738.36972728 762.22510879 752.03883236 728 764 C726.87440674 764.39711182 726.87440674 764.39711182 725.72607422 764.80224609 C684.71829334 779.20004791 641.24309967 788.53847155 598.11328125 793.51464844 C595.32845804 793.83760132 592.54860011 794.18650939 589.76953125 794.55566406 C565.60402992 797.74147731 541.5538877 798.37715742 517.21377945 798.37516785 C514.85584219 798.37500303 512.49791949 798.37771872 510.13998413 798.38049316 C494.1262326 798.38709298 478.15919698 798.12168082 462.17578125 797.08984375 C460.95776321 797.01128143 459.73974518 796.93271912 458.4848175 796.85177612 C445.22901556 795.91242599 432.12223591 794.0567655 419 792 C417.84918945 791.82629883 416.69837891 791.65259766 415.51269531 791.47363281 C385.44375021 786.9003128 355.86670035 779.55307227 327 770 C325.87287598 769.63326172 324.74575195 769.26652344 323.58447266 768.88867188 C294.00567254 759.22661806 265.78815917 746.94473614 238 733 C236.42968018 732.21278564 236.42968018 732.21278564 234.82763672 731.40966797 C221.18455239 724.52806741 207.95644712 717.09983386 195 709 C194.27651367 708.54802246 193.55302734 708.09604492 192.80761719 707.63037109 C154.93026805 683.82448323 119.36334198 655.9347389 88 624 C85.3149062 621.30595589 82.61964063 618.62265718 79.9140625 615.94921875 C74.04783493 610.1413616 68.32407251 604.31459762 63 598 C62.12484142 596.98729193 61.2484225 595.97567234 60.37109375 594.96484375 C36.3986306 567.29233508 15.35869028 537.70064393 -3 506 C-3.40847168 505.30406738 -3.81694336 504.60813477 -4.23779297 503.89111328 C-19.11188786 478.4733562 -30.73210362 451.54721597 -41 424 C-41.59699707 422.41566162 -41.59699707 422.41566162 -42.20605469 420.79931641 C-51.02711716 397.22551701 -57.13939169 372.82679659 -61.46191406 348.05126953 C-61.97858752 345.12142156 -62.52858109 342.19968537 -63.0859375 339.27734375 C-71.95718984 291.53275652 -72.11083876 240.95371887 -65 193 C-64.70507659 190.76995954 -64.4132472 188.53950698 -64.125 186.30859375 C-60.51254817 159.53624348 -54.32277121 132.69203286 -46 107 C-45.61505371 105.80552246 -45.23010742 104.61104492 -44.83349609 103.38037109 C-33.2304153 67.61067876 -18.3778319 32.83746032 0 0 Z " fill="#FEFEFE" transform="translate(1529,1507)"/>
<path d="M0 0 C0.33 0 0.66 0 1 0 C1.36504603 1.58086048 1.71660506 3.16483907 2.0625 4.75 C2.25972656 5.63171875 2.45695312 6.5134375 2.66015625 7.421875 C2.99825872 9.98679028 2.81158635 11.57091639 2 14 C-0.24281523 8.79666866 -1.55577239 5.65735415 0 0 Z " fill="#BDBDBD" transform="translate(1241,1944)"/>
</svg>
